# xmcd
#
# Track frame offsets: 
#        150
#        19154
#        42946
#        63664
#        72064
#        79210
#        97363
#        120745
#        136492
#        146002
#
# Disc length: 2207 seconds
#
# Revision: 1
# Processed by: cddbd v1.5.2PL0 Copyright (c) Steve Scherf et al.
# Submitted via: ExactAudioCopyFreeDBPlugin 1.0
#
DISCID=96089d0a
DTITLE=Gianmarco Liguori - Stolen Paintings
DYEAR=2006
DGENRE=New Zealand: Jazz
TTITLE0=Intro Stolen Paintings
TTITLE1=Trap Door
TTITLE2=Alpine Bossa
TTITLE3=The Wardrobe
TTITLE4=Insect Beat
TTITLE5=Penta
TTITLE6=Kattorna
TTITLE7=Jobim's Cigar
TTITLE8=Don't Open The Window
TTITLE9=Mouth In the Desert
EXTD=YEAR: 2006
EXTT0=
EXTT1=
EXTT2=
EXTT3=
EXTT4=
EXTT5=
EXTT6=
EXTT7=
EXTT8=
EXTT9=
PLAYORDER=
